#!OML:ASF E:\Steps\Project 1\Capture day 1\Session 2\Subject.ASF
:FULLY-SPECIFIED
:DEGREES
269
root 10.5089 22.0565 9.56878 0.46656 -231.433 337.751
lowerback -18.6045 -2.95914 -9.82459
upperback -3.33592 -1.46626 -1.38406
thorax 7.02968 -0.748095 3.73538
lowerneck 1.39269 0.135178 -5.08833
upperneck 8.87279 -0.00423977 6.77903
head 2.62666 0.119564 3.13847
rclavicle 7.27552e-014 -2.70347e-014
rhumerus -53.4094 21.2865 -100.942
rradius 96.1542
rwrist -18.4459
rhand 4.58975 -35.5613
rfingers 7.12502
rthumb 29.9786 -63.1525
lclavicle 7.27552e-014 -2.70347e-014
lhumerus -43.4045 -54.3384 60.7904
lradius 105.204
lwrist 13.0087
lhand -30.9703 -32.0486
lfingers 7.12502
lthumb -4.25442 -2.11132
rfemur -34.3812 16.1566 2.98615
rtibia 23.1673
rfoot 17.2641 -7.36895
rtoes -25.5919
lfemur -72.9488 2.45299 -9.02806
ltibia 66.8942
lfoot 15.9274 17.3133
ltoes -42.7216
270
root 10.6135 21.7613 9.59053 2.24534 -228.891 339.419
lowerback -19.1757 -3.0684 -9.89251
upperback -3.64369 -1.49451 -1.3668
thorax 7.00792 -0.729737 3.78115
lowerneck 1.6753 0.177278 -5.3034
upperneck 8.8663 0.0556887 6.79458
head 2.57058 0.143953 3.18263
rclavicle 7.51903e-014 -3.49861e-014
rhumerus -54.6588 20.8518 -100.83
rradius 96.7246
rwrist -19.0225
rhand 3.66719 -36.2579
rfingers 7.12502
rthumb 29.0979 -64.0048
lclavicle 7.51903e-014 -3.49861e-014
lhumerus -44.8542 -54.3837 60.1354
lradius 105.934
lwrist 13.9935
lhand -31.1839 -31.5439
lfingers 7.12502
lthumb -4.46068 -1.61083
rfemur -33.6608 17.2527 2.56524
rtibia 22.4034
rfoot 16.7351 -7.87077
rtoes -23.8052
lfemur -74.7277 3.23056 -9.432
ltibia 69.0165
lfoot 15.5347 18.2132
ltoes -40.9036
271
root 10.711 21.4565 9.6104 3.80935 -225.779 340.823
lowerback -19.5345 -3.37528 -10.1316
upperback -3.96915 -1.7654 -1.36482
thorax 6.88919 -0.823557 3.84713
lowerneck 1.8521 0.210419 -5.45638
upperneck 8.87325 0.105375 6.79787
head 2.53849 0.166184 3.21196
rclavicle 3.50234e-014 -4.05521e-014
rhumerus -55.8564 20.4019 -100.732
rradius 97.1557
rwrist -18.5763
rhand 3.10766 -36.9269
rfingers 7.12502
rthumb 28.5634 -64.7649
lclavicle 3.50234e-014 -4.05521e-014
lhumerus -46.2508 -54.5126 59.596
lradius 106.362
lwrist 13.3271
lhand -32.2105 -31.2381
lfingers 7.12502
lthumb -5.45193 -1.3282
rfemur -32.7835 17.9741 2.19361
rtibia 21.7721
rfoot 16.2925 -8.81754
rtoes -22.4097
lfemur -76.697 3.26137 -9.88153
ltibia 71.372
lfoot 15.3761 17.9843
ltoes -40.5401
272
root 10.8062 21.143 9.63135 4.89504 -222.693 341.915
lowerback -19.6022 -3.62211 -10.5405
upperback -4.14485 -1.94918 -1.4851
thorax 6.76858 -0.885874 3.90016
lowerneck 1.73721 0.185796 -5.44237
upperneck 8.90373 0.0832851 6.7843
head 2.57124 0.160106 3.2063
rclavicle 8.34678e-014 5.48646e-014
rhumerus -56.8549 19.7689 -100.622
rradius 97.6314
rwrist -17.6324
rhand 4.03138 -36.5521
rfingers 7.12502
rthumb 29.4457 -64.2383
lclavicle 8.34678e-014 5.48646e-014
lhumerus -46.3491 -54.7719 58.0904
lradius 106.572
lwrist 13.7251
lhand -31.5453 -32.5949
lfingers 7.12502
lthumb -4.80965 -2.66954
rfemur -31.7709 18.3353 2.08671
rtibia 21.4717
rfoot 15.9769 -9.59117
rtoes -20.7033
lfemur -78.3596 3.20217 -10.463
ltibia 73.7227
lfoot 15.2539 17.7913
ltoes -40.8801
273
root 10.8991 20.8157 9.66527 6.04647 -219.757 342.975
lowerback -19.6187 -3.80101 -10.94
upperback -4.35906 -2.04617 -1.63188
thorax 6.56586 -0.896773 3.94367
lowerneck 1.63502 0.112918 -5.28524
upperneck 8.90675 -0.00345687 6.76897
head 2.59569 0.126564 3.17123
rclavicle -7.1227e-014 -1.43125e-014
rhumerus -57.7557 19.1032 -100.668
rradius 98.1912
rwrist -17.1498
rhand 4.23653 -36.582
rfingers 7.12502
rthumb 29.6415 -64.2335
lclavicle -7.1227e-014 -1.43125e-014
lhumerus -46.5424 -55.119 56.5068
lradius 107.128
lwrist 14.49
lhand -30.9221 -33.1879
lfingers 7.12502
lthumb -4.20791 -3.24969
rfemur -31.1042 18.3663 2.2986
rtibia 21.3769
rfoot 15.67 -9.9451
rtoes -19.7049
lfemur -80.1962 3.41537 -10.9843
ltibia 75.9113
lfoot 15.3366 17.8567
ltoes -40.6892
